<svg width="1440" height="683" viewBox="0 0 1440 683" fill="none" xmlns="http://www.w3.org/2000/svg">
<mask id="path-1-inside-1_84_313" fill="white">
<path d="M1440 439.865L1440 0L0 6.43718e-06V682.999H1440V439.865Z"/>
</mask>
<path d="M1440 439.865L1440 0L0 6.43718e-06V682.999H1440V439.865Z" fill="#4BB6E8"/>
<path d="M-0.5 6.43718e-06C-0.166626 6.43718e-06 0.166626 6.43718e-06 0.5 6.43718e-06C0.5 70.7666 0.5 141.533 0.5 212.3C0.5 369.2 0.5 526.099 0.5 682.999L0 682.499C480 682.499 960 682.499 1440 682.499L1439.5 682.999C1439.5 601.954 1439.5 520.91 1439.5 439.865C1439.5 293.243 1439.5 146.622 1439.5 4.33622e-09L1440 0.5C1221.38 0.500001 1002.75 0.500002 784.13 0.500003C593.52 0.500004 402.91 0.500005 212.3 0.500006C141.533 0.500006 70.7666 0.500006 0 0.500007C0 0.166673 0 -0.16666 0 -0.499994C70.7666 -0.499994 141.533 -0.499994 212.3 -0.499995C402.91 -0.499995 593.52 -0.499996 784.13 -0.499997C1002.75 -0.499998 1221.38 -0.499999 1440 -0.5H1440.5V-4.33622e-09C1440.5 146.622 1440.5 293.243 1440.5 439.865C1440.5 520.91 1440.5 601.954 1440.5 682.999V683.499H1440C960 683.499 480 683.499 0 683.499H-0.5V682.999C-0.5 526.099 -0.5 369.2 -0.5 212.3C-0.5 141.533 -0.5 70.7666 -0.5 6.43718e-06ZM0.5 6.43718e-06H-0.5V-0.499994H0V0.500007L0.5 6.43718e-06Z" fill="black" mask="url(#path-1-inside-1_84_313)"/>
</svg>
