<svg width="1813" height="605" viewBox="0 0 1813 605" fill="none" xmlns="http://www.w3.org/2000/svg">
<mask id="path-1-inside-1_7_61" fill="white">
<path d="M126.699 63.7013C411.773 -96.3366 997.76 100.094 1560.4 63.7013C2123.05 27.3091 1570.07 604.886 1570.07 604.886H126.699C126.699 604.886 -158.374 223.739 126.699 63.7013Z"/>
</mask>
<path d="M126.699 63.7013C411.773 -96.3366 997.76 100.094 1560.4 63.7013C2123.05 27.3091 1570.07 604.886 1570.07 604.886H126.699C126.699 604.886 -158.374 223.739 126.699 63.7013Z" fill="#9B3388"/>
<path d="M126.455 63.2653C126.618 63.556 126.781 63.8466 126.944 64.1373C193.134 35.3286 264.715 26.5075 334.824 24.2748C512.767 20.8001 690.463 51.082 870.317 68.9697C1098.16 93.0032 1329.62 116.088 1562.77 100.224C1626.08 96.0318 1695.4 97.5884 1740.27 122.963C1784.63 145.607 1785.47 201.882 1764.23 260.825C1720.45 377.498 1633.92 486.584 1547.42 583.196L1570.07 573.522C1088.95 577.788 607.824 584.111 126.699 592.49L136.626 597.462C61.8601 492.28 -6.44143 364.861 8.23244 232.221C16.6332 161.513 64.2898 99.5488 126.944 64.1373C126.781 63.8466 126.618 63.556 126.455 63.2653C62.3333 95.9463 10.2242 157.31 -1.46547 230.658C-21.8627 368.482 42.9679 500.252 116.773 612.31L120.709 617.386L126.699 617.281C607.824 625.661 1088.95 631.983 1570.07 636.249L1583.74 636.128L1592.73 626.576C1686.01 525.228 1775.27 419.76 1829.16 283.985C1841.43 249.479 1851.38 211.684 1846.83 169.099C1843.44 126.117 1813.42 81.7567 1776.54 61.5709C1702.68 21.0768 1627.62 24.361 1558.04 27.1782C1332.95 40.7066 1105.97 17.4629 878.269 -6.61311C698.878 -24.3968 514.75 -42.7818 330.984 -13.1348C259.072 -0.636161 185.937 21.6963 126.455 63.2653ZM126.944 64.1373L126.455 63.2653L126.944 64.1373Z" fill="#4BB6E8" mask="url(#path-1-inside-1_7_61)"/>
</svg>
