<svg width="1448" height="663" viewBox="0 0 1448 663" fill="none" xmlns="http://www.w3.org/2000/svg">
<mask id="path-1-inside-1_7_76" fill="white">
<path d="M0 426.985L724.503 0H1448V663H0V426.985Z"/>
</mask>
<path d="M0 426.985L724.503 0H1448V663H0V426.985Z" fill="#9B3388"/>
<path d="M1448.5 0C1448.17 0 1447.83 0 1447.5 0C1447.5 65.1913 1447.5 130.383 1447.5 195.574C1447.5 351.383 1447.5 507.191 1447.5 663L1448 662.5C965.333 662.5 482.667 662.5 0 662.5L0.5 663C0.5 584.328 0.5 505.657 0.5 426.985L0.253866 427.416C241.755 285.087 483.256 142.759 724.757 0.430757L724.503 0.5C724.885 0.5 725.266 0.5 725.648 0.5C901.241 0.5 1076.83 0.5 1252.43 0.5C1317.62 0.5 1382.81 0.5 1448 0.5C1448 0.166667 1448 -0.166667 1448 -0.5C1382.81 -0.5 1317.62 -0.5 1252.43 -0.5C1076.83 -0.5 901.241 -0.5 725.648 -0.5C725.266 -0.5 724.885 -0.5 724.503 -0.5H724.366L724.249 -0.430757C482.748 141.898 241.247 284.226 -0.253866 426.554L-0.5 426.699V426.985C-0.5 505.657 -0.5 584.328 -0.5 663V663.5H0C482.667 663.5 965.333 663.5 1448 663.5H1448.5V663C1448.5 507.191 1448.5 351.383 1448.5 195.574C1448.5 130.383 1448.5 65.1913 1448.5 0ZM1447.5 0H1448.5V-0.5H1448V0.5L1447.5 0Z" fill="black" mask="url(#path-1-inside-1_7_76)"/>
</svg>
